<?xml version="1.0" encoding="UTF-8" standalone="no"?>
<svg
   version="1.0"
   width="966.99994pt"
   height="672pt"
   viewBox="0 0 966.99994 672"
   preserveAspectRatio="xMidYMid"
   id="svg4"
   sodipodi:docname="title.svg"
   xmlns:inkscape="http://www.inkscape.org/namespaces/inkscape"
   xmlns:sodipodi="http://sodipodi.sourceforge.net/DTD/sodipodi-0.dtd"
   xmlns="http://www.w3.org/2000/svg"
   xmlns:svg="http://www.w3.org/2000/svg">
  <defs
     id="defs4" />
  <sodipodi:namedview
     id="namedview4"
     pagecolor="#ffffff"
     bordercolor="#000000"
     borderopacity="0.25"
     inkscape:showpageshadow="2"
     inkscape:pageopacity="0.0"
     inkscape:pagecheckerboard="0"
     inkscape:deskcolor="#d1d1d1"
     inkscape:document-units="pt" />
  <g
     transform="matrix(0.1,0,0,-0.1,-1074,1414)"
     fill="#000000"
     stroke="none"
     id="g4">
    <path
       d="m 19320,13650 v -490 h 545 545 l -2,488 -3,487 -542,3 -543,2 z"
       id="path1" />
    <path
       d="m 15313,12917 c -9,-11 -33,-53 -81,-139 -20,-35 -132,-226 -152,-258 -10,-16 -74,-128 -178,-310 -36,-63 -77,-133 -92,-155 -15,-22 -38,-63 -51,-92 l -24,-51 -120,-43 c -134,-48 -349,-153 -462,-226 -405,-263 -709,-629 -881,-1063 -92,-231 -141,-441 -153,-660 -16,-279 2,-525 52,-714 16,-60 17,-72 5,-85 -13,-15 -29,-47 -78,-161 -11,-25 -28,-61 -39,-81 -10,-20 -19,-42 -19,-48 0,-10 -58,-144 -79,-182 -5,-8 -21,-47 -36,-85 -15,-38 -31,-73 -35,-79 -4,-5 -29,-59 -54,-120 -66,-153 -74,-171 -111,-250 -35,-73 -51,-110 -91,-210 -24,-59 -24,-59 -4,-79 19,-19 24,-20 117,-7 54,7 161,19 237,26 77,8 153,17 170,20 17,3 83,10 146,15 124,10 320,31 465,50 221,29 213,29 253,-3 57,-46 162,-112 264,-168 94,-51 287,-139 306,-139 5,0 23,-7 38,-15 16,-8 37,-15 47,-15 10,0 30,-6 45,-13 15,-8 70,-23 122,-35 413,-90 771,-74 1150,54 179,60 215,75 326,134 174,92 220,121 298,185 54,44 56,44 241,20 122,-17 313,-38 540,-60 160,-16 333,-35 507,-56 87,-11 109,-11 122,0 9,8 16,20 16,28 0,15 -69,177 -144,336 -25,55 -46,104 -46,110 0,7 -9,26 -20,42 -11,17 -20,35 -20,42 0,6 -18,50 -40,97 -22,47 -40,88 -40,91 0,3 -16,40 -36,82 -20,43 -49,111 -66,151 -16,40 -39,92 -52,115 -12,24 -35,74 -50,112 -15,39 -34,80 -42,92 -12,20 -12,34 6,115 105,499 51,1021 -151,1446 -27,57 -49,106 -49,108 0,5 -56,97 -108,179 -172,266 -379,475 -644,651 -186,124 -322,190 -589,286 -15,5 -32,21 -39,36 -6,15 -37,68 -67,117 -30,50 -94,160 -143,245 -49,85 -104,180 -123,210 -18,30 -80,135 -137,233 -56,97 -106,180 -110,182 -4,3 -12,-1 -17,-8 z m 252,-1918 c 289,-58 579,-246 756,-489 76,-104 115,-167 135,-220 9,-25 20,-49 24,-55 17,-25 70,-220 86,-314 50,-307 -39,-663 -235,-941 -66,-94 -224,-249 -311,-306 -152,-98 -319,-168 -493,-205 -85,-18 -120,-21 -236,-16 -377,16 -734,208 -962,517 -68,92 -169,282 -169,317 0,8 -6,27 -14,41 -8,15 -25,70 -38,122 -20,84 -23,118 -22,300 0,182 3,214 23,285 62,219 141,384 244,505 176,207 366,342 592,421 201,69 402,81 620,38 z"
       id="path2" />
    <path
       d="M 19320,9970 V 7570 h 540 540 v 2400 2400 h -540 -540 z"
       id="path3" />
    <path
       d="m 10740,7965 v -545 h 565 565 v 545 545 h -565 -565 z"
       id="path4" />
  </g>
</svg>
