<svg
   viewBox="0 0 2821.6379 794.29016"
   preserveAspectRatio="xMidYMid"
   xmlns:svg="http://www.w3.org/2000/svg">
  <g
     transform="matrix(0.1,0,0,-0.1,-282.80153,1445)"
     fill="#000000"
     stroke="none"
     >
    <path
       d="m 24787,14443 c -4,-3 -7,-224 -7,-490 v -483 h 545 545 v 490 490 h -538 c -296,0 -542,-3 -545,-7 z"
    />
    <path
       d="m 5190,13285 c -8,-3 -96,-12 -195,-20 -199,-16 -296,-32 -430,-70 -49,-14 -115,-32 -145,-40 -153,-39 -504,-198 -662,-301 -21,-13 -57,-36 -80,-51 -24,-16 -72,-50 -109,-78 -241,-182 -377,-315 -528,-517 -119,-158 -120,-160 -106,-188 23,-45 140,-140 560,-457 110,-84 319,-242 465,-353 146,-110 369,-279 495,-375 791,-600 723,-549 1049,-799 269,-207 398,-307 524,-403 l 114,-86 -49,-49 c -128,-131 -378,-258 -588,-299 -66,-13 -357,-13 -420,0 -115,23 -172,39 -202,54 -18,10 -37,17 -43,17 -24,0 -171,81 -255,141 -50,35 -146,121 -215,192 -69,70 -133,127 -142,127 -19,0 -153,-63 -177,-83 -9,-7 -54,-35 -101,-62 -47,-26 -110,-64 -140,-85 -30,-20 -97,-61 -148,-91 -51,-30 -107,-62 -124,-72 -18,-10 -57,-38 -87,-61 -70,-53 -252,-168 -446,-281 -82,-49 -158,-95 -168,-104 -16,-16 -14,-21 34,-106 165,-289 544,-666 867,-860 9,-6 35,-22 58,-37 36,-23 267,-138 349,-173 108,-47 160,-67 240,-93 150,-48 201,-62 228,-62 14,0 64,-9 109,-19 197,-46 302,-56 573,-56 197,1 281,5 345,17 47,9 110,19 141,22 31,3 75,13 99,21 23,8 56,15 72,15 17,0 51,7 77,15 25,8 80,24 121,36 41,12 125,41 185,66 61,25 124,50 140,56 17,7 89,42 160,78 113,58 177,98 395,246 82,56 273,232 403,371 127,136 237,271 237,291 0,12 -208,179 -425,342 -186,140 -1121,843 -1720,1294 -264,199 -589,444 -723,546 -134,101 -274,208 -312,237 -39,29 -70,58 -70,66 0,21 107,115 203,179 95,64 237,133 295,143 20,4 49,12 63,20 96,48 519,48 619,-1 14,-7 41,-16 60,-20 65,-13 262,-118 360,-191 99,-74 250,-230 372,-384 34,-44 70,-80 80,-80 9,0 39,15 67,33 28,17 70,44 94,58 23,15 121,76 217,136 96,60 254,156 350,213 96,56 272,160 390,230 118,70 230,135 248,144 41,21 41,45 -3,116 -18,30 -46,75 -61,100 -64,106 -252,348 -352,454 -106,112 -169,171 -293,274 -197,164 -310,235 -594,376 -215,106 -519,205 -735,240 -137,22 -574,51 -610,41 z"
   />
    <path
       d="m 29095,12736 c -421,-44 -744,-157 -975,-342 -259,-207 -396,-446 -465,-809 -16,-84 -23,-301 -14,-425 36,-518 257,-859 694,-1070 166,-80 284,-116 716,-215 449,-103 514,-121 646,-186 218,-107 308,-253 306,-494 -2,-303 -188,-477 -588,-551 -140,-26 -640,-27 -825,-1 -275,38 -486,94 -776,203 -94,35 -174,64 -178,64 -3,0 -6,-175 -6,-389 v -388 l 88,-41 c 404,-187 905,-282 1486,-282 675,0 1154,150 1465,459 196,194 311,434 362,756 20,121 17,476 -5,600 -89,517 -358,800 -945,994 -130,43 -241,71 -616,156 -137,31 -299,73 -360,92 -331,106 -455,246 -455,511 1,249 127,412 387,501 272,92 801,76 1269,-39 116,-28 326,-96 432,-138 l 52,-22 -2,406 -3,406 -66,28 c -154,66 -413,140 -604,174 -279,49 -756,69 -1020,42 z"
      />
    <path
       d="m 9630,12676 c 0,-2 403,-996 896,-2208 493,-1211 898,-2211 901,-2220 6,-21 -135,-386 -193,-499 -104,-202 -256,-324 -471,-380 -118,-30 -340,-43 -516,-29 -84,6 -185,17 -225,24 -40,7 -75,10 -77,7 -3,-2 -5,-163 -5,-357 v -353 l 63,-30 c 194,-93 493,-138 801,-120 414,23 683,115 937,319 174,140 357,402 474,680 26,62 1945,5159 1945,5167 0,2 -232,2 -516,1 l -517,-3 -556,-1550 c -485,-1350 -560,-1550 -578,-1553 -18,-3 -26,11 -62,105 -23,59 -295,758 -605,1553 l -562,1445 -567,3 c -312,1 -567,0 -567,-2 z"
      />
    <path
       d="m 15690,10867 c 0,-1970 -1,-1936 56,-2153 128,-497 461,-787 1014,-885 147,-26 440,-36 605,-20 413,40 834,200 1181,447 35,25 73,44 88,44 14,0 26,-1 26,-3 0,-2 20,-94 45,-205 25,-111 45,-204 45,-207 0,-3 209,-5 465,-5 h 465 v 2400 2400 h -535 -535 l -2,-1866 -3,-1866 -115,-50 c -425,-185 -743,-252 -1088,-227 -302,21 -472,109 -562,293 -79,161 -74,11 -77,1969 l -3,1747 h -535 -535 z"
      />
    <path
       d="m 24785,12668 c -3,-7 -4,-1086 -3,-2398 l 3,-2385 538,-3 537,-2 v 2400 2400 h -535 c -419,0 -537,-3 -540,-12 z"
      />
    <path
       d="m 21660,8275 v -545 h 565 565 v 545 545 h -565 -565 z"
      />
  </g>
</svg>
